<svg width="200" height="22" viewBox="0 0 200 22" fill="none" xmlns="http://www.w3.org/2000/svg">
<path d="M0 1L99.6377 1M99.6377 20.9275L0 20.9275" stroke="#888BA0"/>
<g clip-path="url(#clip0_728:1146)">
<path d="M111.77 5.15159C112.864 5.12507 113.946 5.37743 114.913 5.88454C115.88 6.39165 116.699 7.13654 117.294 8.04804C117.488 7.82115 117.663 7.59909 117.858 7.39152C118.163 7.09429 118.529 6.86531 118.93 6.71994C119.332 6.57456 119.761 6.51615 120.187 6.5486C120.613 6.58106 121.028 6.70365 121.402 6.90814C121.777 7.11263 122.104 7.39429 122.36 7.73426C122.962 8.67705 123.451 9.68637 123.818 10.7417C124.09 11.4616 124.415 12.1602 124.791 12.832C124.855 12.9707 124.957 13.0882 125.087 13.1705C125.216 13.2529 125.366 13.2967 125.52 13.2967C125.674 13.2967 125.824 13.2529 125.953 13.1705C126.083 13.0882 126.185 12.9707 126.249 12.832C126.565 12.2659 126.78 11.6504 126.886 11.0121C127.024 10.1022 127.316 9.22226 127.752 8.41009C128.365 7.33356 129.279 6.45536 130.382 5.88053C131.326 5.3725 132.386 5.11791 133.459 5.14194V7.14531C130.853 7.266 129.234 9.28386 129.293 11.0845C129.351 12.8851 130.96 14.7437 133.459 14.8306V16.7615C131.947 17.0801 129.254 15.9119 128.043 13.9954C127.795 14.4136 127.445 14.7631 127.026 15.012C126.606 15.2608 126.13 15.4009 125.642 15.4195C123.857 15.5499 122.919 14.6616 122.345 13.3872C121.83 12.2431 121.426 11.0603 120.964 9.90177C120.863 9.6434 120.732 9.39725 120.575 9.168C120.152 8.57906 119.428 8.68527 118.937 9.38524C118.484 10.1051 118.206 10.92 118.125 11.7652C117.914 13.0324 117.275 14.1904 116.311 15.0478C115.447 15.8798 114.363 16.4522 113.185 16.6988C112.738 16.7905 112.266 16.8098 111.761 16.8677V14.8016C112.321 14.819 112.878 14.7207 113.398 14.513C113.918 14.3052 114.388 13.9926 114.78 13.5948C115.202 13.2163 115.526 12.7432 115.725 12.2149C115.925 11.6867 115.994 11.1186 115.927 10.5583C115.723 9.02801 114.289 7.25634 111.751 7.126L111.77 5.15159Z" fill="#05FAA8"/>
<path d="M135.569 3.05647V18.9387H109.684V3.05647H135.569ZM137.645 0.999985H107.608V21H137.645V0.999985Z" fill="#05FAA8"/>
<path d="M143.475 12.0065C143.179 12.0065 142.896 11.89 142.687 11.6827C142.479 11.4754 142.361 11.1942 142.361 10.901V2.10059C142.363 1.80823 142.48 1.5283 142.689 1.32202C142.898 1.11575 143.18 0.999934 143.475 0.999937H148.643C149.231 0.992286 149.81 1.14598 150.315 1.44407C150.814 1.73388 151.229 2.14615 151.521 2.64127C151.824 3.14089 151.98 3.71418 151.973 4.29707C151.98 5.11358 151.674 5.90216 151.118 6.50321C151.39 6.7939 151.604 7.1329 151.75 7.50247C151.901 7.88532 151.977 8.29334 151.973 8.70451C151.979 9.28881 151.823 9.86343 151.521 10.3651C151.227 10.8576 150.813 11.2679 150.315 11.5575C149.81 11.8571 149.231 12.0124 148.643 12.0065H143.475ZM144.583 3.20125V5.39772H148.643C148.788 5.40025 148.933 5.37331 149.067 5.31852C149.202 5.26374 149.324 5.18228 149.426 5.07911C149.529 4.97686 149.611 4.85535 149.667 4.72156C149.723 4.58778 149.752 4.44435 149.752 4.29949C149.752 4.15463 149.723 4.01118 149.667 3.8774C149.611 3.74361 149.529 3.6221 149.426 3.51985C149.324 3.41669 149.202 3.33524 149.067 3.28045C148.933 3.22567 148.788 3.19872 148.643 3.20125H144.583ZM144.583 7.60386V9.80033H148.643C148.788 9.80286 148.933 9.77591 149.067 9.72113C149.202 9.66635 149.324 9.58488 149.426 9.48172C149.58 9.3278 149.686 9.13187 149.728 8.91864C149.771 8.70541 149.749 8.48444 149.665 8.28358C149.581 8.08273 149.44 7.911 149.258 7.79003C149.076 7.66906 148.862 7.60428 148.643 7.60386H144.583Z" fill="white"/>
<path d="M156.85 12.0065C156.261 12.0124 155.683 11.8571 155.177 11.5575C154.683 11.2652 154.271 10.8554 153.976 10.3651C153.675 9.86343 153.518 9.28881 153.524 8.70451V4.29707C153.517 3.71418 153.674 3.14089 153.976 2.64127C154.269 2.14857 154.682 1.73688 155.177 1.44407C155.683 1.14598 156.262 0.992286 156.85 0.999937H160.739C161.327 0.992286 161.906 1.14598 162.412 1.44407C162.91 1.73388 163.326 2.14615 163.617 2.64127C163.92 3.14089 164.076 3.71418 164.07 4.29707V8.68519C164.076 9.2695 163.919 9.84412 163.617 10.3458C163.324 10.8383 162.909 11.2485 162.412 11.5382C161.906 11.8377 161.328 11.9931 160.739 11.9871L156.85 12.0065ZM155.746 4.28259V8.68519C155.745 8.82946 155.772 8.97253 155.827 9.10606C155.882 9.2396 155.964 9.36092 156.066 9.46293C156.169 9.56495 156.291 9.64561 156.426 9.70022C156.56 9.75484 156.704 9.7823 156.85 9.78101H160.739C160.885 9.78355 161.029 9.7566 161.164 9.70181C161.298 9.64703 161.42 9.56557 161.522 9.4624C161.627 9.36227 161.711 9.24151 161.767 9.10773C161.823 8.97395 161.851 8.83007 161.848 8.68519V4.27776C161.848 4.13345 161.819 3.99056 161.763 3.85729C161.708 3.72402 161.626 3.603 161.523 3.50118C161.42 3.39936 161.298 3.31875 161.163 3.26397C161.029 3.20918 160.885 3.1813 160.739 3.18194H156.85C156.704 3.18065 156.56 3.20812 156.426 3.26273C156.291 3.31734 156.169 3.39801 156.066 3.50002C155.964 3.60204 155.882 3.72336 155.827 3.85689C155.772 3.99042 155.745 4.13349 155.746 4.27776V4.28259Z" fill="white"/>
<path d="M168.961 7.6039C168.374 7.61072 167.797 7.45526 167.293 7.15494C166.796 6.86528 166.381 6.45499 166.088 5.96257C165.792 5.45848 165.636 4.88545 165.636 4.30195C165.636 3.71845 165.792 3.1454 166.088 2.64132C166.381 2.14712 166.796 1.73512 167.293 1.44411C167.797 1.14548 168.375 0.99171 168.961 0.999981H175.427V3.2013H168.961C168.81 3.19132 168.658 3.21232 168.515 3.263C168.372 3.31367 168.241 3.39295 168.13 3.49591C168.019 3.59887 167.931 3.72331 167.871 3.86155C167.81 3.99978 167.779 4.14886 167.779 4.29953C167.779 4.45021 167.81 4.59927 167.871 4.7375C167.931 4.87574 168.019 5.0002 168.13 5.10315C168.241 5.20611 168.372 5.28538 168.515 5.33605C168.658 5.38673 168.81 5.40774 168.961 5.39777H172.476C173.063 5.39095 173.641 5.54639 174.144 5.84671C174.642 6.13772 175.057 6.54973 175.35 7.04392C175.646 7.548 175.802 8.12105 175.802 8.70455C175.802 9.28805 175.646 9.8611 175.35 10.3652C175.055 10.8567 174.64 11.2667 174.144 11.5576C173.641 11.8579 173.063 12.0133 172.476 12.0065H165.801V9.80037H172.452C172.67 9.79902 172.883 9.7339 173.063 9.61317C173.244 9.49244 173.385 9.32145 173.469 9.12157C173.552 8.9217 173.575 8.70181 173.533 8.4894C173.491 8.277 173.388 8.08149 173.235 7.92733C173.134 7.82283 173.012 7.74017 172.877 7.68452C172.743 7.62886 172.598 7.60142 172.452 7.6039H168.961Z" fill="white"/>
<path d="M180.629 12.0065C180.042 12.0126 179.465 11.8572 178.962 11.5576C178.467 11.2655 178.052 10.8557 177.756 10.3652C177.458 9.86225 177.303 9.28819 177.309 8.70459V4.29716C177.303 3.71501 177.457 3.14235 177.756 2.64136C178.051 2.14845 178.465 1.73682 178.962 1.44415C179.466 1.14599 180.043 0.992257 180.629 1.00002H184.519C185.107 0.99287 185.686 1.14653 186.191 1.44415C186.688 1.73682 187.102 2.14845 187.397 2.64136C187.7 3.14097 187.856 3.71427 187.849 4.29716V8.68528C187.855 9.26958 187.699 9.8442 187.397 10.3459C187.101 10.8364 186.687 11.2462 186.191 11.5383C185.686 11.8374 185.107 11.9927 184.519 11.9872L180.629 12.0065ZM179.526 4.28267V8.68528C179.524 8.82999 179.552 8.97352 179.608 9.10713C179.664 9.24075 179.747 9.36165 179.852 9.46249C179.952 9.56574 180.073 9.64732 180.207 9.70213C180.341 9.75695 180.485 9.78382 180.629 9.7811H184.519C184.664 9.78279 184.808 9.75547 184.943 9.70073C185.077 9.646 185.199 9.56497 185.302 9.46249C185.407 9.36235 185.491 9.24159 185.547 9.10781C185.603 8.97403 185.63 8.83015 185.627 8.68528V4.27784C185.63 4.13301 185.602 3.98922 185.546 3.85549C185.49 3.72175 185.407 3.60095 185.302 3.50064C185.199 3.39815 185.077 3.31712 184.943 3.26239C184.808 3.20765 184.664 3.18033 184.519 3.18202H180.629C180.485 3.1793 180.341 3.20617 180.207 3.26099C180.073 3.3158 179.952 3.39738 179.852 3.50064C179.748 3.60553 179.668 3.73034 179.615 3.86735C179.562 4.00436 179.539 4.15064 179.545 4.29716L179.526 4.28267Z" fill="white"/>
<path d="M191.637 5.08402V12.0065H189.415V2.10067C189.412 1.8756 189.482 1.65545 189.615 1.47311C189.742 1.28831 189.924 1.14679 190.135 1.06761C190.348 0.989864 190.579 0.978238 190.799 1.03428C191.019 1.09032 191.216 1.21138 191.365 1.38138L196.99 7.91772V1.00001H199.202V10.9011C199.206 11.1254 199.138 11.3451 199.008 11.5286C198.882 11.7167 198.697 11.859 198.483 11.9341C198.362 11.9805 198.233 12.005 198.103 12.0065C197.943 12.0073 197.784 11.9731 197.637 11.9064C197.491 11.8397 197.362 11.742 197.257 11.6203L191.637 5.08402Z" fill="white"/>
<path d="M143.373 19.3345V21H142.361V17.5001C142.359 17.2352 142.429 16.9748 142.566 16.747C142.7 16.5236 142.889 16.3376 143.115 16.2063C143.343 16.072 143.603 16.0019 143.869 16.0036H145.546C145.814 16.0001 146.078 16.0703 146.309 16.2063C146.534 16.3377 146.721 16.5238 146.854 16.747C146.99 16.9748 147.061 17.2352 147.058 17.5001V17.838C147.06 18.1012 146.989 18.3599 146.854 18.5862C146.722 18.8108 146.534 18.9985 146.309 19.1317C146.078 19.2678 145.814 19.3379 145.546 19.3345H143.373ZM143.373 17.5001V18.34H145.546C145.613 18.3417 145.679 18.3297 145.741 18.3048C145.803 18.2799 145.859 18.2426 145.906 18.1952C145.952 18.1499 145.989 18.0958 146.014 18.0361C146.039 17.9764 146.052 17.9123 146.052 17.8476V17.5097C146.053 17.4442 146.04 17.3792 146.015 17.3186C145.99 17.258 145.953 17.2032 145.906 17.1573C145.859 17.1099 145.803 17.0726 145.741 17.0477C145.679 17.0228 145.613 17.0108 145.546 17.0125H143.869C143.74 17.0125 143.616 17.0634 143.525 17.1539C143.434 17.2444 143.382 17.3672 143.382 17.4952L143.373 17.5001Z" fill="white"/>
<path d="M150.972 19.3345V21H149.965V17.5001C149.963 17.2353 150.033 16.9748 150.17 16.747C150.303 16.525 150.49 16.3392 150.714 16.2064C150.943 16.0712 151.206 16.0011 151.473 16.0036H153.15C153.417 16.0011 153.679 16.0712 153.908 16.2064C154.136 16.3362 154.325 16.5226 154.458 16.747C154.594 16.9748 154.665 17.2353 154.662 17.5001V17.838C154.667 18.1364 154.577 18.4288 154.404 18.6732C154.239 18.9161 154.006 19.1058 153.733 19.2187L154.604 21H153.485L152.669 19.3345H150.972ZM150.972 17.5001V18.3401H153.15C153.216 18.3411 153.281 18.3288 153.342 18.3039C153.403 18.279 153.459 18.242 153.505 18.1953C153.552 18.1504 153.59 18.0965 153.616 18.0367C153.642 17.977 153.655 17.9127 153.656 17.8477V17.5098C153.656 17.4439 153.643 17.3787 153.617 17.3181C153.591 17.2575 153.553 17.2028 153.505 17.1574C153.459 17.1106 153.403 17.0736 153.342 17.0487C153.281 17.0238 153.216 17.0115 153.15 17.0125H151.458C151.392 17.0115 151.327 17.0238 151.266 17.0487C151.204 17.0736 151.149 17.1106 151.103 17.1574C151.016 17.25 150.968 17.3732 150.972 17.5001Z" fill="white"/>
<path d="M159.077 21C158.81 21.0026 158.548 20.9324 158.318 20.7973C158.097 20.6688 157.912 20.488 157.779 20.2711C157.642 20.0433 157.572 19.7828 157.574 19.518V17.5194C157.572 17.2546 157.642 16.9941 157.779 16.7664C157.911 16.5432 158.098 16.3571 158.323 16.2257C158.552 16.0905 158.815 16.0204 159.082 16.023H160.842C161.11 16.0195 161.374 16.0897 161.605 16.2257C161.83 16.3571 162.017 16.5432 162.149 16.7664C162.286 16.9941 162.356 17.2546 162.354 17.5194V19.518C162.358 19.7824 162.289 20.0428 162.154 20.2711C162.022 20.4957 161.835 20.6833 161.61 20.8166C161.379 20.9526 161.115 21.0228 160.846 21.0193L159.077 21ZM158.59 17.5002V19.4987C158.589 19.5642 158.602 19.6292 158.627 19.6898C158.652 19.7504 158.689 19.8053 158.736 19.8511C158.782 19.8979 158.838 19.9349 158.899 19.9597C158.96 19.9846 159.025 19.9969 159.091 19.9959H160.851C160.918 19.9976 160.984 19.9856 161.046 19.9607C161.108 19.9358 161.164 19.8985 161.211 19.8511C161.258 19.8053 161.295 19.7504 161.32 19.6898C161.346 19.6292 161.358 19.5642 161.357 19.4987V17.5002C161.358 17.4347 161.346 17.3696 161.32 17.3091C161.295 17.2485 161.258 17.1936 161.211 17.1477C161.164 17.1004 161.108 17.0631 161.046 17.0381C160.984 17.0132 160.918 17.0012 160.851 17.0029H159.091C159.025 17.0019 158.96 17.0142 158.899 17.0391C158.838 17.064 158.782 17.101 158.736 17.1477C158.687 17.1923 158.647 17.2466 158.619 17.3073C158.591 17.3679 158.577 17.4336 158.576 17.5002H158.59Z" fill="white"/>
<path d="M166.977 21V17.0029H165.256V16.0036H169.7V17.0029H167.989V21H166.977Z" fill="white"/>
<path d="M174.115 21C173.848 21.0025 173.586 20.9324 173.356 20.7972C173.131 20.664 172.944 20.4763 172.812 20.2517C172.676 20.024 172.605 19.7635 172.607 19.4987V17.5001C172.605 17.2353 172.676 16.9748 172.812 16.747C172.944 16.5238 173.131 16.3378 173.356 16.2064C173.586 16.0712 173.848 16.0011 174.115 16.0036H175.875C176.141 16.0011 176.404 16.0712 176.633 16.2064C176.86 16.3362 177.05 16.5226 177.183 16.747C177.319 16.9748 177.389 17.2353 177.387 17.5001V19.4987C177.389 19.7635 177.319 20.024 177.183 20.2517C177.05 20.4776 176.861 20.6655 176.633 20.7972C176.404 20.9324 176.141 21.0025 175.875 21H174.115ZM173.628 17.5001V19.4987C173.628 19.6267 173.68 19.7495 173.771 19.84C173.862 19.9305 173.986 19.9814 174.115 19.9814H175.875C175.941 19.9824 176.006 19.9701 176.067 19.9452C176.128 19.9203 176.183 19.8834 176.23 19.8366C176.278 19.7912 176.316 19.7365 176.342 19.6759C176.368 19.6152 176.381 19.55 176.38 19.4842V17.4856C176.381 17.4198 176.368 17.3546 176.342 17.2939C176.316 17.2333 176.278 17.1787 176.23 17.1332C176.183 17.0864 176.128 17.0495 176.067 17.0246C176.006 16.9997 175.941 16.9874 175.875 16.9884H174.115C173.986 16.9884 173.862 17.0393 173.771 17.1298C173.68 17.2203 173.628 17.3431 173.628 17.4711V17.5001Z" fill="white"/>
<path d="M182.307 21C182.042 21.0007 181.78 20.9494 181.536 20.8492C181.291 20.749 181.069 20.6018 180.882 20.4161C180.695 20.2304 180.547 20.0098 180.446 19.767C180.345 19.5243 180.293 19.2641 180.294 19.0015V18.0022C180.293 17.7395 180.345 17.4794 180.446 17.2366C180.547 16.9939 180.695 16.7733 180.882 16.5876C181.069 16.4019 181.291 16.2547 181.536 16.1545C181.78 16.0543 182.042 16.003 182.307 16.0036H184.485V17.0029H182.307C182.04 17.0042 181.785 17.1099 181.596 17.297C181.408 17.4841 181.302 17.7375 181.3 18.0022V19.0015C181.299 19.1328 181.324 19.263 181.375 19.3842C181.426 19.5054 181.502 19.615 181.597 19.7063C181.689 19.7998 181.8 19.8738 181.922 19.9236C182.044 19.9734 182.175 19.998 182.307 19.9959H184.485V21H182.307Z" fill="white"/>
<path d="M188.895 21C188.628 21.0025 188.366 20.9324 188.136 20.7972C187.911 20.664 187.724 20.4763 187.592 20.2517C187.456 20.024 187.385 19.7635 187.388 19.4987V17.5001C187.385 17.2353 187.456 16.9748 187.592 16.747C187.724 16.5238 187.912 16.3378 188.136 16.2064C188.366 16.0712 188.628 16.0011 188.895 16.0036H190.66C190.927 16.0011 191.189 16.0712 191.418 16.2064C191.643 16.3378 191.83 16.5238 191.963 16.747C192.099 16.9748 192.17 17.2353 192.167 17.5001V19.4987C192.17 19.7635 192.099 20.024 191.963 20.2517C191.831 20.4763 191.643 20.664 191.418 20.7972C191.189 20.9324 190.927 21.0025 190.66 21H188.895ZM188.409 17.5001V19.4987C188.408 19.5641 188.42 19.6292 188.445 19.6897C188.47 19.7503 188.508 19.8052 188.555 19.8511C188.601 19.8978 188.656 19.9348 188.717 19.9597C188.778 19.9846 188.844 19.9969 188.91 19.9959H190.674C190.74 19.9969 190.806 19.9846 190.867 19.9597C190.928 19.9348 190.983 19.8978 191.029 19.8511C191.076 19.8052 191.114 19.7503 191.139 19.6897C191.164 19.6292 191.176 19.5641 191.175 19.4987V17.5001C191.176 17.4346 191.164 17.3696 191.139 17.309C191.114 17.2484 191.076 17.1935 191.029 17.1477C190.983 17.1009 190.928 17.064 190.867 17.0391C190.806 17.0142 190.74 17.0019 190.674 17.0029H188.895C188.829 17.0019 188.763 17.0142 188.702 17.0391C188.641 17.064 188.586 17.1009 188.54 17.1477C188.496 17.1947 188.461 17.2502 188.438 17.3107C188.416 17.3712 188.406 17.4356 188.409 17.5001Z" fill="white"/>
<path d="M196.086 16.0036V19.9959H199.275V21H195.585C195.458 20.9931 195.338 20.94 195.249 20.8509C195.159 20.7618 195.106 20.643 195.099 20.5173V16.0229L196.086 16.0036Z" fill="white"/>
</g>
<path d="M5.74243 14.5491C5.26013 14.5491 4.83571 14.4558 4.46916 14.2694C4.10261 14.0764 3.81966 13.8096 3.62031 13.4687C3.42096 13.1279 3.32129 12.7324 3.32129 12.2823V9.89973C3.32129 9.44959 3.42096 9.0541 3.62031 8.71328C3.81966 8.37246 4.10261 8.1088 4.46916 7.92231C4.83571 7.73582 5.26013 7.64258 5.74243 7.64258C6.21829 7.64258 6.6395 7.73261 7.00605 7.91267C7.37259 8.09272 7.65554 8.34673 7.85489 8.6747C8.05424 9.00266 8.15392 9.38207 8.15392 9.81292C8.15392 9.84507 8.14106 9.87401 8.11533 9.89973C8.09604 9.91903 8.07032 9.92867 8.03817 9.92867L7.15074 9.9769C7.07357 9.9769 7.03499 9.94153 7.03499 9.8708C7.03499 9.49139 6.91602 9.18593 6.67809 8.95443C6.44658 8.72293 6.1347 8.60717 5.74243 8.60717C5.35016 8.60717 5.03506 8.72293 4.79712 8.95443C4.55919 9.18593 4.44022 9.49139 4.44022 9.8708V12.3305C4.44022 12.7035 4.55919 13.0057 4.79712 13.2372C5.03506 13.4687 5.35016 13.5845 5.74243 13.5845C6.1347 13.5845 6.44658 13.472 6.67809 13.2469C6.91602 13.0154 7.03499 12.7099 7.03499 12.3305C7.03499 12.2598 7.07357 12.2244 7.15074 12.2244L8.03817 12.263C8.07032 12.263 8.09604 12.2726 8.11533 12.2919C8.14106 12.3112 8.15392 12.3337 8.15392 12.3595C8.15392 12.7967 8.05424 13.1826 7.85489 13.517C7.65554 13.8449 7.37259 14.0989 7.00605 14.279C6.6395 14.4591 6.21829 14.5491 5.74243 14.5491Z" fill="white"/>
<path d="M14.1479 14.5684C13.6656 14.5684 13.238 14.4719 12.865 14.279C12.492 14.0797 12.2026 13.7999 11.9969 13.4398C11.7975 13.0797 11.6978 12.6649 11.6978 12.1955V9.99619C11.6978 9.53319 11.8007 9.12484 12.0065 8.77116C12.2123 8.41104 12.4984 8.13452 12.865 7.9416C13.238 7.74225 13.6656 7.64258 14.1479 7.64258C14.6366 7.64258 15.0643 7.74225 15.4308 7.9416C15.8038 8.13452 16.0932 8.41104 16.299 8.77116C16.5047 9.12484 16.6076 9.53319 16.6076 9.99619V12.1955C16.6076 12.6649 16.5047 13.0797 16.299 13.4398C16.0932 13.7999 15.8038 14.0797 15.4308 14.279C15.0643 14.4719 14.6366 14.5684 14.1479 14.5684ZM14.1479 13.6038C14.553 13.6038 14.8778 13.4784 15.1221 13.2276C15.3665 12.9768 15.4887 12.6456 15.4887 12.2341V9.98655C15.4887 9.56856 15.3665 9.23416 15.1221 8.98337C14.8778 8.73257 14.553 8.60717 14.1479 8.60717C13.7492 8.60717 13.4277 8.73257 13.1833 8.98337C12.9389 9.23416 12.8168 9.56856 12.8168 9.98655V12.2341C12.8168 12.6456 12.9389 12.9768 13.1833 13.2276C13.4277 13.4784 13.7492 13.6038 14.1479 13.6038Z" fill="white"/>
<path d="M24.2867 7.8355C24.2867 7.80334 24.2964 7.77762 24.3157 7.75833C24.3414 7.73261 24.3703 7.71975 24.4025 7.71975H25.2899C25.3221 7.71975 25.3478 7.73261 25.3671 7.75833C25.3928 7.77762 25.4057 7.80334 25.4057 7.8355V14.3562C25.4057 14.3883 25.3928 14.4173 25.3671 14.443C25.3478 14.4623 25.3221 14.4719 25.2899 14.4719H24.4314C24.3671 14.4719 24.3221 14.4462 24.2964 14.3948L21.5183 9.84186C21.5055 9.82257 21.4926 9.81614 21.4797 9.82257C21.4669 9.82257 21.4605 9.83543 21.4605 9.86115L21.4797 14.3562C21.4797 14.3883 21.4669 14.4173 21.4412 14.443C21.4219 14.4623 21.3961 14.4719 21.364 14.4719H20.4766C20.4444 14.4719 20.4155 14.4623 20.3898 14.443C20.3705 14.4173 20.3608 14.3883 20.3608 14.3562V7.8355C20.3608 7.80334 20.3705 7.77762 20.3898 7.75833C20.4155 7.73261 20.4444 7.71975 20.4766 7.71975H21.3351C21.3994 7.71975 21.4444 7.74547 21.4701 7.79691L24.2385 12.3498C24.2514 12.3691 24.2642 12.3787 24.2771 12.3787C24.2899 12.3723 24.2964 12.3562 24.2964 12.3305L24.2867 7.8355Z" fill="white"/>
<path d="M33.1625 7.8355C33.1625 7.80334 33.1722 7.77762 33.1915 7.75833C33.2172 7.73261 33.2461 7.71975 33.2783 7.71975H34.1657C34.1979 7.71975 34.2236 7.73261 34.2429 7.75833C34.2686 7.77762 34.2815 7.80334 34.2815 7.8355V14.3562C34.2815 14.3883 34.2686 14.4173 34.2429 14.443C34.2236 14.4623 34.1979 14.4719 34.1657 14.4719H33.3072C33.2429 14.4719 33.1979 14.4462 33.1722 14.3948L30.3941 9.84186C30.3813 9.82257 30.3684 9.81614 30.3555 9.82257C30.3427 9.82257 30.3363 9.83543 30.3363 9.86115L30.3555 14.3562C30.3555 14.3883 30.3427 14.4173 30.317 14.443C30.2977 14.4623 30.2719 14.4719 30.2398 14.4719H29.3524C29.3202 14.4719 29.2913 14.4623 29.2655 14.443C29.2463 14.4173 29.2366 14.3883 29.2366 14.3562V7.8355C29.2366 7.80334 29.2463 7.77762 29.2655 7.75833C29.2913 7.73261 29.3202 7.71975 29.3524 7.71975H30.2109C30.2752 7.71975 30.3202 7.74547 30.3459 7.79691L33.1143 12.3498C33.1271 12.3691 33.14 12.3787 33.1529 12.3787C33.1657 12.3723 33.1722 12.3562 33.1722 12.3305L33.1625 7.8355Z" fill="white"/>
<path d="M42.6846 8.56859C42.6846 8.60074 42.6717 8.62968 42.646 8.6554C42.6267 8.6747 42.601 8.68434 42.5688 8.68434H39.2796C39.2474 8.68434 39.2313 8.70042 39.2313 8.73257V10.5364C39.2313 10.5685 39.2474 10.5846 39.2796 10.5846H41.4885C41.5206 10.5846 41.5464 10.5975 41.5657 10.6232C41.5914 10.6425 41.6042 10.6682 41.6042 10.7003V11.4334C41.6042 11.4656 41.5914 11.4945 41.5657 11.5203C41.5464 11.5395 41.5206 11.5492 41.4885 11.5492H39.2796C39.2474 11.5492 39.2313 11.5653 39.2313 11.5974V13.4591C39.2313 13.4912 39.2474 13.5073 39.2796 13.5073H42.5688C42.601 13.5073 42.6267 13.5202 42.646 13.5459C42.6717 13.5652 42.6846 13.5909 42.6846 13.6231V14.3562C42.6846 14.3883 42.6717 14.4173 42.646 14.443C42.6267 14.4623 42.601 14.4719 42.5688 14.4719H38.2282C38.196 14.4719 38.1671 14.4623 38.1413 14.443C38.122 14.4173 38.1124 14.3883 38.1124 14.3562V7.8355C38.1124 7.80334 38.122 7.77762 38.1413 7.75833C38.1671 7.73261 38.196 7.71975 38.2282 7.71975H42.5688C42.601 7.71975 42.6267 7.73261 42.646 7.75833C42.6717 7.77762 42.6846 7.80334 42.6846 7.8355V8.56859Z" fill="white"/>
<path d="M48.586 14.5491C48.1037 14.5491 47.6792 14.4558 47.3127 14.2694C46.9461 14.0764 46.6632 13.8096 46.4638 13.4687C46.2645 13.1279 46.1648 12.7324 46.1648 12.2823V9.89973C46.1648 9.44959 46.2645 9.0541 46.4638 8.71328C46.6632 8.37246 46.9461 8.1088 47.3127 7.92231C47.6792 7.73582 48.1037 7.64258 48.586 7.64258C49.0618 7.64258 49.483 7.73261 49.8496 7.91267C50.2161 8.09272 50.4991 8.34673 50.6984 8.6747C50.8978 9.00266 50.9975 9.38207 50.9975 9.81292C50.9975 9.84507 50.9846 9.87401 50.9589 9.89973C50.9396 9.91903 50.9139 9.92867 50.8817 9.92867L49.9943 9.9769C49.9171 9.9769 49.8785 9.94153 49.8785 9.8708C49.8785 9.49139 49.7596 9.18593 49.5216 8.95443C49.2901 8.72293 48.9782 8.60717 48.586 8.60717C48.1937 8.60717 47.8786 8.72293 47.6407 8.95443C47.4027 9.18593 47.2838 9.49139 47.2838 9.8708V12.3305C47.2838 12.7035 47.4027 13.0057 47.6407 13.2372C47.8786 13.4687 48.1937 13.5845 48.586 13.5845C48.9782 13.5845 49.2901 13.472 49.5216 13.2469C49.7596 13.0154 49.8785 12.7099 49.8785 12.3305C49.8785 12.2598 49.9171 12.2244 49.9943 12.2244L50.8817 12.263C50.9139 12.263 50.9396 12.2726 50.9589 12.2919C50.9846 12.3112 50.9975 12.3337 50.9975 12.3595C50.9975 12.7967 50.8978 13.1826 50.6984 13.517C50.4991 13.8449 50.2161 14.0989 49.8496 14.279C49.483 14.4591 49.0618 14.5491 48.586 14.5491Z" fill="white"/>
<path d="M59.0671 7.71975C59.0993 7.71975 59.125 7.73261 59.1443 7.75833C59.17 7.77762 59.1829 7.80334 59.1829 7.8355V8.57824C59.1829 8.61039 59.17 8.63933 59.1443 8.66505C59.125 8.68434 59.0993 8.69399 59.0671 8.69399H57.2923C57.2601 8.69399 57.244 8.71006 57.244 8.74222V14.3562C57.244 14.3883 57.2312 14.4173 57.2055 14.443C57.1862 14.4623 57.1604 14.4719 57.1283 14.4719H56.2409C56.2087 14.4719 56.1798 14.4623 56.1541 14.443C56.1348 14.4173 56.1251 14.3883 56.1251 14.3562V8.74222C56.1251 8.71006 56.109 8.69399 56.0769 8.69399H54.3696C54.3374 8.69399 54.3085 8.68434 54.2827 8.66505C54.2634 8.63933 54.2538 8.61039 54.2538 8.57824V7.8355C54.2538 7.80334 54.2634 7.77762 54.2827 7.75833C54.3085 7.73261 54.3374 7.71975 54.3696 7.71975H59.0671Z" fill="white"/>
<path d="M67.2961 8.56859C67.2961 8.60074 67.2833 8.62968 67.2575 8.6554C67.2382 8.6747 67.2125 8.68434 67.1804 8.68434H63.8911C63.8589 8.68434 63.8429 8.70042 63.8429 8.73257V10.5364C63.8429 10.5685 63.8589 10.5846 63.8911 10.5846H66.1C66.1322 10.5846 66.1579 10.5975 66.1772 10.6232C66.2029 10.6425 66.2158 10.6682 66.2158 10.7003V11.4334C66.2158 11.4656 66.2029 11.4945 66.1772 11.5203C66.1579 11.5395 66.1322 11.5492 66.1 11.5492H63.8911C63.8589 11.5492 63.8429 11.5653 63.8429 11.5974V13.4591C63.8429 13.4912 63.8589 13.5073 63.8911 13.5073H67.1804C67.2125 13.5073 67.2382 13.5202 67.2575 13.5459C67.2833 13.5652 67.2961 13.5909 67.2961 13.6231V14.3562C67.2961 14.3883 67.2833 14.4173 67.2575 14.443C67.2382 14.4623 67.2125 14.4719 67.1804 14.4719H62.8397C62.8075 14.4719 62.7786 14.4623 62.7529 14.443C62.7336 14.4173 62.7239 14.3883 62.7239 14.3562V7.8355C62.7239 7.80334 62.7336 7.77762 62.7529 7.75833C62.7786 7.73261 62.8075 7.71975 62.8397 7.71975H67.1804C67.2125 7.71975 67.2382 7.73261 67.2575 7.75833C67.2833 7.77762 67.2961 7.80334 67.2961 7.8355V8.56859Z" fill="white"/>
<path d="M71.0561 14.4719C71.0239 14.4719 70.995 14.4623 70.9693 14.443C70.95 14.4173 70.9403 14.3883 70.9403 14.3562V7.8355C70.9403 7.80334 70.95 7.77762 70.9693 7.75833C70.995 7.73261 71.0239 7.71975 71.0561 7.71975H73.4097C73.8663 7.71975 74.2682 7.80013 74.6155 7.96089C74.9627 8.12166 75.2296 8.35316 75.4161 8.6554C75.609 8.95121 75.7055 9.29847 75.7055 9.69717V12.4945C75.7055 12.8932 75.609 13.2437 75.4161 13.5459C75.2296 13.8417 74.9627 14.07 74.6155 14.2308C74.2682 14.3915 73.8663 14.4719 73.4097 14.4719H71.0561ZM72.0593 13.4591C72.0593 13.4912 72.0753 13.5073 72.1075 13.5073H73.4579C73.7988 13.5073 74.0688 13.4012 74.2682 13.189C74.474 12.9704 74.5801 12.681 74.5865 12.3209V9.88044C74.5865 9.5139 74.4836 9.22452 74.2778 9.01231C74.0721 8.79366 73.7955 8.68434 73.4483 8.68434H72.1075C72.0753 8.68434 72.0593 8.70042 72.0593 8.73257V13.4591Z" fill="white"/>
<path d="M87.6217 10.9511C87.5831 10.9704 87.5831 10.9897 87.6217 11.009C88.2776 11.3177 88.6056 11.8482 88.6056 12.6006C88.6056 13.2115 88.3998 13.6777 87.9882 13.9993C87.5831 14.3144 87.0526 14.4719 86.3966 14.4719H83.9659C83.9337 14.4719 83.9048 14.4623 83.8791 14.443C83.8598 14.4173 83.8501 14.3883 83.8501 14.3562V7.8355C83.8501 7.80334 83.8598 7.77762 83.8791 7.75833C83.9048 7.73261 83.9337 7.71975 83.9659 7.71975H86.3195C87.0204 7.71975 87.5606 7.87087 87.94 8.17311C88.3194 8.47535 88.5091 8.93192 88.5091 9.54283C88.5091 10.2181 88.2133 10.6875 87.6217 10.9511ZM85.0173 8.68434C84.9851 8.68434 84.969 8.70042 84.969 8.73257V10.5171C84.969 10.5492 84.9851 10.5653 85.0173 10.5653H86.3195C86.6603 10.5653 86.9272 10.4849 87.1201 10.3242C87.3194 10.157 87.4191 9.92867 87.4191 9.63929C87.4191 9.34348 87.3194 9.11198 87.1201 8.94478C86.9272 8.77116 86.6603 8.68434 86.3195 8.68434H85.0173ZM86.3966 13.4977C86.731 13.4977 86.9947 13.4077 87.1876 13.2276C87.387 13.0475 87.4866 12.8032 87.4866 12.4945C87.4866 12.1794 87.387 11.935 87.1876 11.7614C86.9883 11.5813 86.7182 11.4913 86.3774 11.4913H85.0173C84.9851 11.4913 84.969 11.5074 84.969 11.5395V13.4494C84.969 13.4816 84.9851 13.4977 85.0173 13.4977H86.3966Z" fill="white"/>
<path d="M93.7839 14.4623C93.7518 14.4623 93.7228 14.4526 93.6971 14.4333C93.6778 14.4076 93.6682 14.3787 93.6682 14.3465V11.7614C93.6682 11.7357 93.665 11.7164 93.6586 11.7035L91.6715 7.85479C91.6586 7.82907 91.6522 7.80977 91.6522 7.79691C91.6522 7.74547 91.6876 7.71975 91.7583 7.71975H92.7132C92.7776 7.71975 92.8226 7.74868 92.8483 7.80656L94.1987 10.4978C94.218 10.5235 94.2373 10.5235 94.2566 10.4978L95.6167 7.80656C95.6488 7.74868 95.6938 7.71975 95.7517 7.71975H96.7163C96.7613 7.71975 96.7903 7.73261 96.8031 7.75833C96.8224 7.78405 96.8224 7.81621 96.8031 7.85479L94.8064 11.7035C94.7936 11.7293 94.7871 11.7485 94.7871 11.7614V14.3465C94.7871 14.3787 94.7743 14.4076 94.7485 14.4333C94.7292 14.4526 94.7035 14.4623 94.6714 14.4623H93.7839Z" fill="white"/>
<defs>
<clipPath id="clip0_728:1146">
<rect width="91.6667" height="20" fill="white" transform="translate(107.608 1)"/>
</clipPath>
</defs>
</svg>
